<mxfile host="app.diagrams.net" modified="2024-06-12T12:59:09.976Z" agent="Mozilla/5.0 (Windows NT 10.0; Win64; x64) AppleWebKit/537.36 (KHTML, like Gecko) Chrome/125.0.0.0 Safari/537.36 Edg/125.0.0.0" version="24.5.3" etag="JurZcpCfHSp2vcb1lIQq" type="github">
  <diagram id="_tscBDmkcDxSYHEMuUUn" name="第 1 页">
    <mxGraphModel dx="1242" dy="736" grid="1" gridSize="10" guides="1" tooltips="1" connect="1" arrows="1" fold="1" page="1" pageScale="1" pageWidth="827" pageHeight="1169" background="#ffffff" math="0" shadow="0">
      <root>
        <mxCell id="0" />
        <mxCell id="1" parent="0" />
        <mxCell id="_fDkVU81IbNHXYLJN514-9" value="ATM 软件系统" style="rounded=0;whiteSpace=wrap;html=1;verticalAlign=top;" vertex="1" parent="1">
          <mxGeometry x="160" y="40" width="380" height="540" as="geometry" />
        </mxCell>
        <mxCell id="_fDkVU81IbNHXYLJN514-2" value="持卡人" style="shape=umlActor;verticalLabelPosition=bottom;verticalAlign=top;html=1;" vertex="1" parent="1">
          <mxGeometry x="50" y="90" width="30" height="60" as="geometry" />
        </mxCell>
        <mxCell id="_fDkVU81IbNHXYLJN514-5" value="ATM Use Case" style="shape=umlFrame;whiteSpace=wrap;html=1;pointerEvents=0;width=90;height=40;" vertex="1" parent="1">
          <mxGeometry x="20" y="10" width="560" height="600" as="geometry" />
        </mxCell>
      </root>
    </mxGraphModel>
  </diagram>
</mxfile>
